<svg width="22" height="22" viewBox="0 0 22 22" fill="none" xmlns="http://www.w3.org/2000/svg">
<g id="SVG" clip-path="url(#clip0_36_39)">
<path id="Vector" d="M13.5 9C12.67 9 12 8.33 12 7.5V2.5C12 1.67 12.67 1 13.5 1C14.33 1 15 1.67 15 2.5V7.5C15 8.33 14.33 9 13.5 9Z" stroke="#FF014F" stroke-width="2" stroke-linecap="round" stroke-linejoin="round"/>
<path id="Vector_2" d="M19.5 9H18V7.5C18 6.67 18.67 6 19.5 6C20.33 6 21 6.67 21 7.5C21 8.33 20.33 9 19.5 9Z" stroke="#FF014F" stroke-width="2" stroke-linecap="round" stroke-linejoin="round"/>
<path id="Vector_3" d="M8.5 13C9.33 13 10 13.67 10 14.5V19.5C10 20.33 9.33 21 8.5 21C7.67 21 7 20.33 7 19.5V14.5C7 13.67 7.67 13 8.5 13Z" stroke="#FF014F" stroke-width="2" stroke-linecap="round" stroke-linejoin="round"/>
<path id="Vector_4" d="M2.5 13H4V14.5C4 15.33 3.33 16 2.5 16C1.67 16 1 15.33 1 14.5C1 13.67 1.67 13 2.5 13Z" stroke="#FF014F" stroke-width="2" stroke-linecap="round" stroke-linejoin="round"/>
<path id="Vector_5" d="M13 13.5C13 12.67 13.67 12 14.5 12H19.5C20.33 12 21 12.67 21 13.5C21 14.33 20.33 15 19.5 15H14.5C13.67 15 13 14.33 13 13.5Z" stroke="#FF014F" stroke-width="2" stroke-linecap="round" stroke-linejoin="round"/>
<path id="Vector_6" d="M14.5 18H13V19.5C13 20.33 13.67 21 14.5 21C15.33 21 16 20.33 16 19.5C16 18.67 15.33 18 14.5 18Z" stroke="#FF014F" stroke-width="2" stroke-linecap="round" stroke-linejoin="round"/>
<path id="Vector_7" d="M9 8.5C9 7.67 8.33 7 7.5 7H2.5C1.67 7 1 7.67 1 8.5C1 9.33 1.67 10 2.5 10H7.5C8.33 10 9 9.33 9 8.5Z" stroke="#FF014F" stroke-width="2" stroke-linecap="round" stroke-linejoin="round"/>
<path id="Vector_8" d="M7.5 4H9V2.5C9 1.67 8.33 1 7.5 1C6.67 1 6 1.67 6 2.5C6 3.33 6.67 4 7.5 4Z" stroke="#FF014F" stroke-width="2" stroke-linecap="round" stroke-linejoin="round"/>
</g>
<defs>
<clipPath id="clip0_36_39">
<rect width="22" height="22" fill="white"/>
</clipPath>
</defs>
</svg>
