<svg width="21" height="25" viewBox="0 0 21 25" fill="none" xmlns="http://www.w3.org/2000/svg">
<g id="SVG">
<path id="Vector" d="M14.6551 4.25732H6.32176C4.02057 4.25732 2.15509 6.1228 2.15509 8.42399V16.7573C2.15509 19.0585 4.02057 20.924 6.32176 20.924H14.6551C16.9563 20.924 18.8218 19.0585 18.8218 16.7573V8.42399C18.8218 6.1228 16.9563 4.25732 14.6551 4.25732Z" stroke="#C4CFDE" stroke-width="1.66667" stroke-linecap="round" stroke-linejoin="round"/>
<path id="Vector_2" d="M13.8217 12.0656C13.9246 12.7592 13.8061 13.4675 13.4832 14.0898C13.1603 14.7122 12.6493 15.2168 12.0231 15.532C11.3968 15.8473 10.6871 15.957 9.99487 15.8456C9.30265 15.7342 8.66318 15.4074 8.16742 14.9116C7.67165 14.4158 7.34483 13.7764 7.23344 13.0842C7.12205 12.3919 7.23177 11.6822 7.54699 11.056C7.86221 10.4297 8.36687 9.91876 8.9892 9.59585C9.61154 9.27293 10.3198 9.15447 11.0134 9.25731C11.7208 9.36221 12.3758 9.69186 12.8815 10.1976C13.3872 10.7033 13.7168 11.3582 13.8217 12.0656Z" stroke="#C4CFDE" stroke-width="1.66667" stroke-linecap="round" stroke-linejoin="round"/>
<path id="Vector_3" d="M15.0717 8.00732H15.08" stroke="#C4CFDE" stroke-width="1.66667" stroke-linecap="round" stroke-linejoin="round"/>
</g>
</svg>
