<svg width="21" height="25" viewBox="0 0 21 25" fill="none" xmlns="http://www.w3.org/2000/svg">
<g id="SVG">
<path id="Vector" d="M13.8217 9.25732C15.1478 9.25732 16.4196 9.78411 17.3573 10.7218C18.2949 11.6595 18.8217 12.9312 18.8217 14.2573V20.0907H15.4884V14.2573C15.4884 13.8153 15.3128 13.3914 15.0002 13.0788C14.6877 12.7663 14.2637 12.5907 13.8217 12.5907C13.3797 12.5907 12.9558 12.7663 12.6432 13.0788C12.3306 13.3914 12.155 13.8153 12.155 14.2573V20.0907H8.82172V14.2573C8.82172 12.9312 9.3485 11.6595 10.2862 10.7218C11.2239 9.78411 12.4956 9.25732 13.8217 9.25732Z" stroke="#C4CFDE" stroke-width="1.66667" stroke-linecap="round" stroke-linejoin="round"/>
<path id="Vector_2" d="M5.48842 10.0906H2.15509V20.0906H5.48842V10.0906Z" stroke="#C4CFDE" stroke-width="1.66667" stroke-linecap="round" stroke-linejoin="round"/>
<path id="Vector_3" d="M3.82176 7.59066C4.74223 7.59066 5.48842 6.84447 5.48842 5.92399C5.48842 5.00352 4.74223 4.25732 3.82176 4.25732C2.90128 4.25732 2.15509 5.00352 2.15509 5.92399C2.15509 6.84447 2.90128 7.59066 3.82176 7.59066Z" stroke="#C4CFDE" stroke-width="1.66667" stroke-linecap="round" stroke-linejoin="round"/>
</g>
</svg>
